<?xml version="1.0" encoding="UTF-8"?><svg id="Layer_2" xmlns="http://www.w3.org/2000/svg" xmlns:xlink="http://www.w3.org/1999/xlink" viewBox="0 0 1254 1254"><defs><style>.cls-1{filter:url(#outer-glow-6);}.cls-2{filter:url(#outer-glow-7);}.cls-3{filter:url(#outer-glow-8);}.cls-4{filter:url(#outer-glow-9);}.cls-5{filter:url(#outer-glow-2);}.cls-6{filter:url(#outer-glow-3);}.cls-7{filter:url(#outer-glow-4);}.cls-8{filter:url(#outer-glow-5);}.cls-9{filter:url(#outer-glow-1);}.cls-10,.cls-11,.cls-12,.cls-13,.cls-14,.cls-15,.cls-16,.cls-17,.cls-18{stroke:#4a9ef5;}.cls-10,.cls-11,.cls-12,.cls-13,.cls-14,.cls-19,.cls-16,.cls-17,.cls-18{fill:none;}.cls-10,.cls-15,.cls-19{stroke-linecap:round;}.cls-10,.cls-15,.cls-19,.cls-16,.cls-17,.cls-20{stroke-miterlimit:10;}.cls-10,.cls-17{stroke-width:8px;}.cls-11{stroke-dasharray:5.94 5.94;}.cls-11,.cls-12,.cls-13,.cls-14,.cls-18{stroke-width:5px;}.cls-11,.cls-14,.cls-18{stroke-miterlimit:5;}.cls-12{stroke-dasharray:4.93 4.93;}.cls-12,.cls-13{stroke-miterlimit:6;}.cls-15{fill:#4a9ef5;}.cls-15,.cls-16{stroke-width:4px;}.cls-19{stroke:#64daff;stroke-width:12px;}.cls-20{fill:#64daff;stroke:#fff;stroke-width:2px;}.cls-18{stroke-dasharray:5.92 5.92;}.cls-21{filter:url(#outer-glow-11);}.cls-22{filter:url(#outer-glow-13);}.cls-23{filter:url(#outer-glow-12);}.cls-24{filter:url(#outer-glow-10);}</style><filter id="outer-glow-1" x="232" y="231" width="394" height="394" filterUnits="userSpaceOnUse"><feOffset dx="0" dy="0"/><feGaussianBlur result="blur" stdDeviation="9"/><feFlood flood-color="#fff" flood-opacity=".6"/><feComposite in2="blur" operator="in"/><feComposite in="SourceGraphic"/></filter><filter id="outer-glow-2" x="632" y="627" width="393" height="393" filterUnits="userSpaceOnUse"><feOffset dx="0" dy="0"/><feGaussianBlur result="blur-2" stdDeviation="9"/><feFlood flood-color="#fff" flood-opacity=".6"/><feComposite in2="blur-2" operator="in"/><feComposite in="SourceGraphic"/></filter><filter id="outer-glow-3" x="424" y="369" width="97" height="97" filterUnits="userSpaceOnUse"><feOffset dx="0" dy="0"/><feGaussianBlur result="blur-3" stdDeviation="11"/><feFlood flood-color="#fff" flood-opacity=".65"/><feComposite in2="blur-3" operator="in"/><feComposite in="SourceGraphic"/></filter><filter id="outer-glow-4" x="700" y="346" width="97" height="97" filterUnits="userSpaceOnUse"><feOffset dx="0" dy="0"/><feGaussianBlur result="blur-4" stdDeviation="11"/><feFlood flood-color="#fff" flood-opacity=".65"/><feComposite in2="blur-4" operator="in"/><feComposite in="SourceGraphic"/></filter><filter id="outer-glow-5" x="824" y="480" width="96" height="97" filterUnits="userSpaceOnUse"><feOffset dx="0" dy="0"/><feGaussianBlur result="blur-5" stdDeviation="11"/><feFlood flood-color="#fff" flood-opacity=".65"/><feComposite in2="blur-5" operator="in"/><feComposite in="SourceGraphic"/></filter><filter id="outer-glow-6" x="717" y="803" width="97" height="97" filterUnits="userSpaceOnUse"><feOffset dx="0" dy="0"/><feGaussianBlur result="blur-6" stdDeviation="11"/><feFlood flood-color="#fff" flood-opacity=".65"/><feComposite in2="blur-6" operator="in"/><feComposite in="SourceGraphic"/></filter><filter id="outer-glow-7" x="813" y="698" width="97" height="97" filterUnits="userSpaceOnUse"><feOffset dx="0" dy="0"/><feGaussianBlur result="blur-7" stdDeviation="11"/><feFlood flood-color="#fff" flood-opacity=".65"/><feComposite in2="blur-7" operator="in"/><feComposite in="SourceGraphic"/></filter><filter id="outer-glow-8" x="460" y="813" width="97" height="97" filterUnits="userSpaceOnUse"><feOffset dx="0" dy="0"/><feGaussianBlur result="blur-8" stdDeviation="11"/><feFlood flood-color="#fff" flood-opacity=".65"/><feComposite in2="blur-8" operator="in"/><feComposite in="SourceGraphic"/></filter><filter id="outer-glow-9" x="349" y="698" width="96" height="97" filterUnits="userSpaceOnUse"><feOffset dx="0" dy="0"/><feGaussianBlur result="blur-9" stdDeviation="11"/><feFlood flood-color="#fff" flood-opacity=".65"/><feComposite in2="blur-9" operator="in"/><feComposite in="SourceGraphic"/></filter><filter id="outer-glow-10" x="908" y="599" width="56" height="56" filterUnits="userSpaceOnUse"><feOffset dx="0" dy="0"/><feGaussianBlur result="blur-10" stdDeviation="6"/><feFlood flood-color="#fff" flood-opacity=".54"/><feComposite in2="blur-10" operator="in"/><feComposite in="SourceGraphic"/></filter><filter id="outer-glow-11" x="291" y="599" width="55" height="56" filterUnits="userSpaceOnUse"><feOffset dx="0" dy="0"/><feGaussianBlur result="blur-11" stdDeviation="6"/><feFlood flood-color="#fff" flood-opacity=".54"/><feComposite in2="blur-11" operator="in"/><feComposite in="SourceGraphic"/></filter><filter id="outer-glow-12" x="599" y="292" width="56" height="55" filterUnits="userSpaceOnUse"><feOffset dx="0" dy="0"/><feGaussianBlur result="blur-12" stdDeviation="6"/><feFlood flood-color="#fff" flood-opacity=".54"/><feComposite in2="blur-12" operator="in"/><feComposite in="SourceGraphic"/></filter><filter id="outer-glow-13" x="599" y="911" width="56" height="55" filterUnits="userSpaceOnUse"><feOffset dx="0" dy="0"/><feGaussianBlur result="blur-13" stdDeviation="6"/><feFlood flood-color="#fff" flood-opacity=".54"/><feComposite in2="blur-13" operator="in"/><feComposite in="SourceGraphic"/></filter></defs><g id="Layer_2-2"><rect width="1254" height="1254"/></g><g id="Layer_1-2"><g id="Generative_Object_0_0_"><g class="cls-9"><path class="cls-19" d="M265.96,591.17s30.51-290.99,326.2-326.2"/></g><g class="cls-5"><path class="cls-19" d="M991.55,660.19s-30.51,290.99-326.2,326.2"/></g><path class="cls-10" d="M665.35,262.69s290.99,30.51,326.2,326.2"/><path class="cls-10" d="M592.16,986.38s-290.99-30.51-326.2-326.2"/><path class="cls-14" d="M319.89,603.37s.09-1.03.34-2.98"/><path class="cls-18" d="M321.04,594.54c6.81-44.6,49.21-244.06,266.09-274.12"/><path class="cls-14" d="M590.07,320.02c.99-.13,1.98-.25,2.98-.38"/><path class="cls-14" d="M937.41,653.31s-.11,1.03-.37,2.97"/><path class="cls-11" d="M936.16,662.15c-7.26,44.65-51.7,244.36-268.61,274.43"/><path class="cls-14" d="M664.6,936.98c-.99.13-1.98.25-2.98.38"/><path class="cls-13" d="M319.89,653.96s.03.86.14,2.49"/><path class="cls-12" d="M320.45,661.36c1.39,13.84,6.12,45.67,21.86,83.17"/><path class="cls-13" d="M343.28,746.81c.33.76.66,1.53,1,2.29"/><path class="cls-13" d="M936.17,597.33s-.03-.86-.14-2.49"/><path class="cls-12" d="M935.61,589.93c-1.39-13.84-6.12-45.67-21.86-83.17"/><path class="cls-13" d="M912.78,504.48c-.33-.76-.66-1.53-1-2.29"/><path class="cls-10" d="M594.32,366.73s-186.74,18.13-223.19,224.44"/><path class="cls-10" d="M665.35,888.87s186.74-18.13,223.19-224.44"/><path class="cls-10" d="M889.17,589.92s-18.13-186.74-224.44-223.19"/><path class="cls-10" d="M370.5,665.05s18.13,186.74,224.44,223.19"/><g class="cls-6"><circle class="cls-20" cx="472.54" cy="417.51" r="13.91"/></g><g class="cls-7"><circle class="cls-20" cx="748.54" cy="394.78" r="13.91"/></g><g class="cls-8"><circle class="cls-20" cx="872.01" cy="528.17" r="13.91"/></g><g class="cls-1"><circle class="cls-20" cx="765.76" cy="851.62" r="13.91"/></g><g class="cls-2"><circle class="cls-20" cx="861.44" cy="746.89" r="13.91"/></g><g class="cls-3"><circle class="cls-20" cx="508.56" cy="861.24" r="13.91"/></g><g class="cls-4"><circle class="cls-20" cx="397.03" cy="746.45" r="13.91"/></g><line class="cls-15" x1="1029.47" y1="627" x2="956.27" y2="627"/><line class="cls-15" x1="918.14" y1="627" x2="782.25" y2="627"/><g class="cls-24"><circle class="cls-20" cx="936.17" cy="627" r="8.2"/></g><line class="cls-15" x1="225.32" y1="627" x2="298.53" y2="627"/><line class="cls-15" x1="336.65" y1="627" x2="472.54" y2="627"/><g class="cls-21"><circle class="cls-20" cx="318.62" cy="627" r="8.2"/></g><line class="cls-15" x1="627" y1="225.84" x2="627" y2="299.05"/><line class="cls-15" x1="627" y1="337.17" x2="627" y2="473.06"/><g class="cls-23"><circle class="cls-20" cx="627" cy="319.64" r="8.2"/></g><line class="cls-15" x1="627" y1="1032.52" x2="627" y2="959.31"/><line class="cls-15" x1="627" y1="921.19" x2="627" y2="785.3"/><g class="cls-22"><circle class="cls-20" cx="627" cy="938.71" r="8.2"/></g><circle class="cls-17" cx="627" cy="627" r="187.4"/><circle class="cls-17" cx="627" cy="627" r="144.17"/><polygon class="cls-16" points="627 555.33 563.79 591.17 563.79 664.43 627 698.4 690.45 664.43 690.45 591.17 627 555.33"/><polyline class="cls-16" points="585.49 488.9 627 491.02 627 555.33"/><line class="cls-16" x1="668.51" y1="488.9" x2="627" y2="491.02"/><polyline class="cls-16" points="690.45 591.17 737.18 568.79 768.56 599.55"/><polyline class="cls-16" points="690.45 664.43 736.64 688.17 767.33 660.19"/><line class="cls-16" x1="737.18" y1="568.79" x2="731.35" y2="527.52"/><line class="cls-16" x1="736.64" y1="688.17" x2="732.49" y2="725.27"/><polyline class="cls-16" points="627 698.4 627 761.94 586.31 765.35"/><line class="cls-16" x1="627" y1="761.94" x2="667.69" y2="765.35"/><polyline class="cls-16" points="562.73 591.17 515.99 568.79 484.62 599.55"/><line class="cls-16" x1="521.81" y1="529.37" x2="515.97" y2="570.64"/><polyline class="cls-16" points="563.79 664.43 517.6 688.17 486.91 660.19"/><line class="cls-16" x1="516.82" y1="685.77" x2="520.97" y2="722.87"/></g></g></svg>