<?xml version="1.0" encoding="UTF-8"?><svg id="Layer_2" xmlns="http://www.w3.org/2000/svg" xmlns:xlink="http://www.w3.org/1999/xlink" viewBox="0 0 808.15 810.68"><defs><style>.cls-1{filter:url(#outer-glow-6);}.cls-2{filter:url(#outer-glow-7);}.cls-3{filter:url(#outer-glow-8);}.cls-4{filter:url(#outer-glow-9);}.cls-5{filter:url(#outer-glow-2);}.cls-6{filter:url(#outer-glow-3);}.cls-7{filter:url(#outer-glow-4);}.cls-8{filter:url(#outer-glow-5);}.cls-9{filter:url(#outer-glow-1);}.cls-10,.cls-11,.cls-12,.cls-13,.cls-14,.cls-15,.cls-16,.cls-17,.cls-18{stroke:#4a9ef5;}.cls-10,.cls-11,.cls-12,.cls-13,.cls-14,.cls-19,.cls-16,.cls-17,.cls-18{fill:none;}.cls-10,.cls-15,.cls-19{stroke-linecap:round;}.cls-10,.cls-15,.cls-19,.cls-16,.cls-17,.cls-20{stroke-miterlimit:10;}.cls-10,.cls-17{stroke-width:8px;}.cls-11{stroke-dasharray:5.94 5.94;}.cls-11,.cls-12,.cls-13,.cls-14,.cls-18{stroke-width:5px;}.cls-11,.cls-14,.cls-18{stroke-miterlimit:5;}.cls-12{stroke-dasharray:4.93 4.93;}.cls-12,.cls-13{stroke-miterlimit:6;}.cls-15{fill:#4a9ef5;}.cls-15,.cls-16{stroke-width:4px;}.cls-19{stroke:#64daff;stroke-width:12px;}.cls-20{fill:#64daff;stroke:#fff;stroke-width:2px;}.cls-18{stroke-dasharray:5.92 5.92;}.cls-21{filter:url(#outer-glow-11);}.cls-22{filter:url(#outer-glow-13);}.cls-23{filter:url(#outer-glow-12);}.cls-24{filter:url(#outer-glow-10);}</style><filter id="outer-glow-1" x="8.68" y="7.16" width="394" height="394" filterUnits="userSpaceOnUse"><feOffset dx="0" dy="0"/><feGaussianBlur result="blur" stdDeviation="9"/><feFlood flood-color="#fff" flood-opacity=".6"/><feComposite in2="blur" operator="in"/><feComposite in="SourceGraphic"/></filter><filter id="outer-glow-2" x="408.68" y="403.16" width="393" height="393" filterUnits="userSpaceOnUse"><feOffset dx="0" dy="0"/><feGaussianBlur result="blur-2" stdDeviation="9"/><feFlood flood-color="#fff" flood-opacity=".6"/><feComposite in2="blur-2" operator="in"/><feComposite in="SourceGraphic"/></filter><filter id="outer-glow-3" x="200.68" y="145.16" width="97" height="97" filterUnits="userSpaceOnUse"><feOffset dx="0" dy="0"/><feGaussianBlur result="blur-3" stdDeviation="11"/><feFlood flood-color="#fff" flood-opacity=".65"/><feComposite in2="blur-3" operator="in"/><feComposite in="SourceGraphic"/></filter><filter id="outer-glow-4" x="476.68" y="122.16" width="97" height="97" filterUnits="userSpaceOnUse"><feOffset dx="0" dy="0"/><feGaussianBlur result="blur-4" stdDeviation="11"/><feFlood flood-color="#fff" flood-opacity=".65"/><feComposite in2="blur-4" operator="in"/><feComposite in="SourceGraphic"/></filter><filter id="outer-glow-5" x="600.68" y="256.16" width="96" height="97" filterUnits="userSpaceOnUse"><feOffset dx="0" dy="0"/><feGaussianBlur result="blur-5" stdDeviation="11"/><feFlood flood-color="#fff" flood-opacity=".65"/><feComposite in2="blur-5" operator="in"/><feComposite in="SourceGraphic"/></filter><filter id="outer-glow-6" x="493.68" y="579.16" width="97" height="97" filterUnits="userSpaceOnUse"><feOffset dx="0" dy="0"/><feGaussianBlur result="blur-6" stdDeviation="11"/><feFlood flood-color="#fff" flood-opacity=".65"/><feComposite in2="blur-6" operator="in"/><feComposite in="SourceGraphic"/></filter><filter id="outer-glow-7" x="589.68" y="474.16" width="97" height="97" filterUnits="userSpaceOnUse"><feOffset dx="0" dy="0"/><feGaussianBlur result="blur-7" stdDeviation="11"/><feFlood flood-color="#fff" flood-opacity=".65"/><feComposite in2="blur-7" operator="in"/><feComposite in="SourceGraphic"/></filter><filter id="outer-glow-8" x="236.68" y="589.16" width="97" height="97" filterUnits="userSpaceOnUse"><feOffset dx="0" dy="0"/><feGaussianBlur result="blur-8" stdDeviation="11"/><feFlood flood-color="#fff" flood-opacity=".65"/><feComposite in2="blur-8" operator="in"/><feComposite in="SourceGraphic"/></filter><filter id="outer-glow-9" x="125.68" y="474.16" width="96" height="97" filterUnits="userSpaceOnUse"><feOffset dx="0" dy="0"/><feGaussianBlur result="blur-9" stdDeviation="11"/><feFlood flood-color="#fff" flood-opacity=".65"/><feComposite in2="blur-9" operator="in"/><feComposite in="SourceGraphic"/></filter><filter id="outer-glow-10" x="684.68" y="375.16" width="56" height="56" filterUnits="userSpaceOnUse"><feOffset dx="0" dy="0"/><feGaussianBlur result="blur-10" stdDeviation="6"/><feFlood flood-color="#fff" flood-opacity=".54"/><feComposite in2="blur-10" operator="in"/><feComposite in="SourceGraphic"/></filter><filter id="outer-glow-11" x="67.68" y="375.16" width="55" height="56" filterUnits="userSpaceOnUse"><feOffset dx="0" dy="0"/><feGaussianBlur result="blur-11" stdDeviation="6"/><feFlood flood-color="#fff" flood-opacity=".54"/><feComposite in2="blur-11" operator="in"/><feComposite in="SourceGraphic"/></filter><filter id="outer-glow-12" x="375.68" y="68.16" width="56" height="55" filterUnits="userSpaceOnUse"><feOffset dx="0" dy="0"/><feGaussianBlur result="blur-12" stdDeviation="6"/><feFlood flood-color="#fff" flood-opacity=".54"/><feComposite in2="blur-12" operator="in"/><feComposite in="SourceGraphic"/></filter><filter id="outer-glow-13" x="375.68" y="687.16" width="56" height="55" filterUnits="userSpaceOnUse"><feOffset dx="0" dy="0"/><feGaussianBlur result="blur-13" stdDeviation="6"/><feFlood flood-color="#fff" flood-opacity=".54"/><feComposite in2="blur-13" operator="in"/><feComposite in="SourceGraphic"/></filter></defs><g id="Layer_1-2"><g id="Generative_Object_0_0_"><g class="cls-9"><path class="cls-19" d="M42.64,367.33S73.15,76.34,368.84,41.14"/></g><g class="cls-5"><path class="cls-19" d="M768.23,436.35s-30.51,290.99-326.2,326.2"/></g><path class="cls-10" d="M442.03,38.86s290.99,30.51,326.2,326.2"/><path class="cls-10" d="M368.84,762.55s-290.99-30.51-326.2-326.2"/><path class="cls-14" d="M96.56,379.53s.09-1.03.34-2.98"/><path class="cls-18" d="M97.72,370.7c6.81-44.6,49.21-244.06,266.09-274.12"/><path class="cls-14" d="M366.75,96.18c.99-.13,1.98-.25,2.98-.38"/><path class="cls-14" d="M714.09,429.47s-.11,1.03-.37,2.97"/><path class="cls-11" d="M712.84,438.31c-7.26,44.65-51.7,244.36-268.61,274.43"/><path class="cls-14" d="M441.28,713.14c-.99.13-1.98.25-2.98.38"/><path class="cls-13" d="M96.56,430.12s.03.86.14,2.49"/><path class="cls-12" d="M97.12,437.52c1.39,13.84,6.12,45.67,21.86,83.17"/><path class="cls-13" d="M119.96,522.98c.33.76.66,1.53,1,2.29"/><path class="cls-13" d="M712.85,373.5s-.03-.86-.14-2.49"/><path class="cls-12" d="M712.29,366.09c-1.39-13.84-6.12-45.67-21.86-83.17"/><path class="cls-13" d="M689.46,280.64c-.33-.76-.66-1.53-1-2.29"/><path class="cls-10" d="M371,142.89s-186.74,18.13-223.19,224.44"/><path class="cls-10" d="M442.03,665.03s186.74-18.13,223.19-224.44"/><path class="cls-10" d="M665.85,366.08s-18.13-186.74-224.44-223.19"/><path class="cls-10" d="M147.18,441.22s18.13,186.74,224.44,223.19"/><g class="cls-6"><circle class="cls-20" cx="249.22" cy="193.67" r="13.91"/></g><g class="cls-7"><circle class="cls-20" cx="525.22" cy="170.94" r="13.91"/></g><g class="cls-8"><circle class="cls-20" cx="648.69" cy="304.33" r="13.91"/></g><g class="cls-1"><circle class="cls-20" cx="542.44" cy="627.78" r="13.91"/></g><g class="cls-2"><circle class="cls-20" cx="638.12" cy="523.05" r="13.91"/></g><g class="cls-3"><circle class="cls-20" cx="285.24" cy="637.4" r="13.91"/></g><g class="cls-4"><circle class="cls-20" cx="173.7" cy="522.62" r="13.91"/></g><line class="cls-15" x1="806.15" y1="403.16" x2="732.94" y2="403.16"/><line class="cls-15" x1="694.82" y1="403.16" x2="558.93" y2="403.16"/><g class="cls-24"><circle class="cls-20" cx="712.85" cy="403.16" r="8.2"/></g><line class="cls-15" x1="2" y1="403.16" x2="75.21" y2="403.16"/><line class="cls-15" x1="113.33" y1="403.16" x2="249.22" y2="403.16"/><g class="cls-21"><circle class="cls-20" cx="95.3" cy="403.16" r="8.2"/></g><line class="cls-15" x1="403.68" y1="2" x2="403.68" y2="75.21"/><line class="cls-15" x1="403.68" y1="113.33" x2="403.68" y2="249.22"/><g class="cls-23"><circle class="cls-20" cx="403.68" cy="95.81" r="8.2"/></g><line class="cls-15" x1="403.68" y1="808.68" x2="403.68" y2="735.47"/><line class="cls-15" x1="403.68" y1="697.35" x2="403.68" y2="561.46"/><g class="cls-22"><circle class="cls-20" cx="403.68" cy="714.87" r="8.2"/></g><circle class="cls-17" cx="403.68" cy="403.16" r="187.4"/><circle class="cls-17" cx="403.68" cy="403.16" r="144.17"/><polygon class="cls-16" points="403.68 331.49 340.47 367.33 340.47 440.59 403.68 474.56 467.12 440.59 467.12 367.33 403.68 331.49"/><polyline class="cls-16" points="362.17 265.06 403.68 267.18 403.68 331.49"/><line class="cls-16" x1="445.19" y1="265.06" x2="403.68" y2="267.18"/><polyline class="cls-16" points="467.12 367.33 513.86 344.95 545.23 375.72"/><polyline class="cls-16" points="467.12 440.59 513.32 464.33 544.01 436.35"/><line class="cls-16" x1="513.86" y1="344.95" x2="508.03" y2="303.68"/><line class="cls-16" x1="513.32" y1="464.33" x2="509.17" y2="501.43"/><polyline class="cls-16" points="403.68 474.56 403.68 538.1 362.99 541.51"/><line class="cls-16" x1="403.68" y1="538.1" x2="444.37" y2="541.51"/><polyline class="cls-16" points="339.41 367.33 292.67 344.95 261.3 375.72"/><line class="cls-16" x1="298.49" y1="305.53" x2="292.65" y2="346.8"/><polyline class="cls-16" points="340.47 440.59 294.27 464.33 263.59 436.35"/><line class="cls-16" x1="293.49" y1="461.93" x2="297.65" y2="499.03"/></g></g></svg>